<svg xmlns="http://www.w3.org/2000/svg" width="87" height="11" viewBox="0 0 87 11">
  <defs>
    <style>
      .cls-1 {
        fill: #fff;
      }
    </style>
  </defs>
  <g id="グループ_2" data-name="グループ 2" transform="translate(-3)">
    <path id="パス_13" data-name="パス 13" class="cls-1" d="M-42.088-17.408a3.35,3.35,0,0,1,1.311.973,2.184,2.184,0,0,1,.471,1.387,2.551,2.551,0,0,1-1.065,2.27,4.621,4.621,0,0,1-2.659.724h-3.55V-22.21h3.13a4.713,4.713,0,0,1,2.666.655,2.148,2.148,0,0,1,.971,1.9,2.6,2.6,0,0,1-.333,1.332A2.478,2.478,0,0,1-42.088-17.408Zm-3.391-.649H-44.2a1.175,1.175,0,0,0,.9-.338,1.171,1.171,0,0,0,.319-.835.912.912,0,0,0-.362-.78,1.645,1.645,0,0,0-1-.269h-1.13Zm1.348,4.14a2.244,2.244,0,0,0,1.2-.283.933.933,0,0,0,.456-.849q0-1.076-1.8-1.076h-1.2v2.208Zm7.3-3.2A4.872,4.872,0,0,1-36.1-19.7a5.4,5.4,0,0,1,1.985-1.911A5.416,5.416,0,0,1-31.4-22.32a5.416,5.416,0,0,1,2.717.711,5.518,5.518,0,0,1,2,1.911,4.8,4.8,0,0,1,.746,2.58,4.779,4.779,0,0,1-.746,2.594,5.445,5.445,0,0,1-2,1.884,5.5,5.5,0,0,1-2.717.7,5.487,5.487,0,0,1-2.724-.7A5.346,5.346,0,0,1-36.1-14.523,4.849,4.849,0,0,1-36.829-17.118Zm2.173,0a3.134,3.134,0,0,0,.442,1.628,3.246,3.246,0,0,0,1.2,1.18,3.342,3.342,0,0,0,1.688.435,3.17,3.17,0,0,0,1.637-.435,3.144,3.144,0,0,0,1.159-1.173,3.247,3.247,0,0,0,.42-1.635,3.226,3.226,0,0,0-.435-1.656,3.223,3.223,0,0,0-1.181-1.18,3.236,3.236,0,0,0-1.659-.435,3.236,3.236,0,0,0-1.659.435,3.223,3.223,0,0,0-1.181,1.18A3.226,3.226,0,0,0-34.655-17.118ZM-21.8-22.21h3.188a6.722,6.722,0,0,1,3.362.752,4.649,4.649,0,0,1,1.92,1.946,5.611,5.611,0,0,1,.6,2.56,4.638,4.638,0,0,1-.724,2.58,4.785,4.785,0,0,1-1.949,1.718,6.022,6.022,0,0,1-2.688.6H-21.8Zm3.347,8.224a3.915,3.915,0,0,0,2.594-.8,2.836,2.836,0,0,0,.956-2.3,3.187,3.187,0,0,0-.529-1.932,2.816,2.816,0,0,0-1.232-.994,3.634,3.634,0,0,0-1.326-.276H-19.7v6.306Zm18-8.224-4,7v3.16h-2.1v-3.16l-3.927-7h2.594l2.449,4.692,2.391-4.692Z" transform="translate(90.46 22.624)"/>
    <path id="パス_14" data-name="パス 14" class="cls-1" d="M-28.291-22.549v1.937h-5.173v2.172h4.579V-16.5h-4.579v2.2h5.376v1.937h-7.477V-22.549Zm14.011,0v10.6h-.058L-21.8-18.384l.043,6.019h-2.13V-22.95h.087l7.448,6.531-.043-6.13Zm13.432,9.16a2.861,2.861,0,0,1-.877.519,8.089,8.089,0,0,1-1.391.443,6.291,6.291,0,0,1-1.384.173,6.678,6.678,0,0,1-2.978-.63,4.718,4.718,0,0,1-1.978-1.743,4.693,4.693,0,0,1-.7-2.539,5.8,5.8,0,0,1,.739-3.023,4.7,4.7,0,0,1,1.985-1.854,6.129,6.129,0,0,1,2.753-.616,7.72,7.72,0,0,1,1.826.208,6.909,6.909,0,0,1,1.507.54l-.681,1.868a5.41,5.41,0,0,0-1.152-.408A5.122,5.122,0,0,0-4.4-20.639a3.84,3.84,0,0,0-2.659.83,3.149,3.149,0,0,0-.92,2.463,2.965,2.965,0,0,0,.449,1.64,2.906,2.906,0,0,0,1.253,1.072,4.3,4.3,0,0,0,1.833.374,3.145,3.145,0,0,0,1.463-.263v-1.231h-1.84v-1.937h3.97Z" transform="translate(38.565 22.95)"/>
  </g>
</svg>
